HIERARCHY
ROOT Hips
{
    OFFSET 0.000000 0.000000 0.000000
    CHANNELS 6 Xposition Yposition Zposition Zrotation Xrotation Yrotation
    JOINT Spine
    {
        OFFSET -0.000000 14.517291 0.000000
        CHANNELS 3 Zrotation Xrotation Yrotation
        JOINT Spine1
        {
            OFFSET -0.000000 37.558300 0.000000
            CHANNELS 3 Zrotation Xrotation Yrotation
            JOINT Neck
            {
                OFFSET -0.000000 37.404057 3.400369
                CHANNELS 3 Zrotation Xrotation Yrotation
                JOINT Head
                {
                    OFFSET -0.000000 24.785618 -3.540803
                    CHANNELS 3 Zrotation Xrotation Yrotation
                    End Site
                    {
                        OFFSET -0.000000 35.408028 0.000000
                    }
                }
            }
            JOINT LeftShoulder
            {
                OFFSET 6.992933 33.973492 -0.192664
                CHANNELS 3 Zrotation Xrotation Yrotation
                JOINT LeftArm
                {
                    OFFSET 21.527611 0.000000 0.000000
                    CHANNELS 3 Zrotation Xrotation Yrotation
                    JOINT LeftForeArm
                    {
                        OFFSET 56.353916 0.000000 0.000000
                        CHANNELS 3 Zrotation Xrotation Yrotation
                        JOINT LeftHand
                        {
                            OFFSET 47.774071 0.000000 0.000000
                            CHANNELS 3 Zrotation Xrotation Yrotation
                            End Site
                            {
                                OFFSET 26.556021 0.000000 0.000000
                            }
                        }
                    }
                }
            }
            JOINT RightShoulder
            {
                OFFSET -7.065357 33.973492 -0.192664
                CHANNELS 3 Zrotation Xrotation Yrotation
                JOINT RightArm
                {
                    OFFSET -21.527611 0.000000 0.000000
                    CHANNELS 3 Zrotation Xrotation Yrotation
                    JOINT RightForeArm
                    {
                        OFFSET -56.353916 0.000000 0.000000
                        CHANNELS 3 Zrotation Xrotation Yrotation
                        JOINT RightHand
                        {
                            OFFSET -47.774071 0.000000 0.000000
                            CHANNELS 3 Zrotation Xrotation Yrotation
                            End Site
                            {
                                OFFSET -26.556021 0.000000 0.000000
                            }
                        }
                    }
                }
            }
        }
    }
    JOINT LeftUpLeg
    {
        OFFSET 17.704014 0.000000 0.000000
        CHANNELS 3 Zrotation Xrotation Yrotation
        JOINT LeftLeg
        {
            OFFSET -0.000000 -81.181816 0.000000
            CHANNELS 3 Zrotation Xrotation Yrotation
            JOINT LeftFoot
            {
                OFFSET -0.000000 -62.821102 0.000000
                CHANNELS 3 Zrotation Xrotation Yrotation
                JOINT LeftToeBase
                {
                    OFFSET -0.000000 -11.507608 26.556021
                    CHANNELS 3 Zrotation Xrotation Yrotation
                    End Site
                    {
                        OFFSET -0.000000 0.000000 7.081605
                    }
                }
            }
        }
    }
    JOINT RightUpLeg
    {
        OFFSET -17.704014 0.000000 0.000000
        CHANNELS 3 Zrotation Xrotation Yrotation
        JOINT RightLeg
        {
            OFFSET -0.000000 -81.181816 0.000000
            CHANNELS 3 Zrotation Xrotation Yrotation
            JOINT RightFoot
            {
                OFFSET -0.000000 -62.821102 0.000000
                CHANNELS 3 Zrotation Xrotation Yrotation
                JOINT RightToeBase
                {
                    OFFSET -0.000000 -11.507608 26.556021
                    CHANNELS 3 Zrotation Xrotation Yrotation
                    End Site
                    {
                        OFFSET -0.000000 0.000000 7.081605
                    }
                }
            }
        }
    }
}
MOTION
Frames:    8
Frame Time:    0.008333
35.265350    159.682816    -98.210312    -1.965844    -0.660242    23.230005    0.102302    -5.910283    -2.336474    -7.606319    2.849180    -0.588854    17.071114    0.175269    3.579696    1.391700    0.281074    1.391278    9.489320    6.274207    -13.214482    -38.233376    11.540227    -52.526596    -8.458232    -22.298399    -116.304436    -3.718467    -34.018845    -11.532006    -11.271356    1.585562    -8.578562    10.136901    8.612351    16.987701    20.377844    30.919189    97.796005    24.473921    12.531749    18.474882    9.267134    4.249896    1.242271    -8.992720    20.060337    -16.924870    5.304925    -22.823233    44.888260    0.000000    0.000000    0.000000    -11.110983    -24.794912    -5.493949    10.091522    24.720757    -12.487422    0.957270    9.068459    -12.205841    0.000000    0.000000    0.000000    
35.274570    159.682007    -98.211433    -1.956681    -0.652140    23.240107    0.092220    -5.914415    -2.335440    -7.589064    2.843414    -0.589145    17.043213    0.174608    3.546372    1.469032    0.320191    1.371061    9.474692    6.287283    -13.210876    -38.266300    11.524953    -52.554157    -8.470712    -22.257109    -116.292030    -3.679084    -34.000504    -11.492826    -11.286353    1.587908    -8.560749    10.120901    8.629806    17.010281    20.318975    31.018536    98.283646    24.461695    12.513369    18.505917    9.252090    4.249183    1.236160    -8.988902    20.051447    -16.918762    5.292534    -22.826527    44.869606    0.000000    0.000000    0.000000    -11.117459    -24.789984    -5.493002    10.073928    24.712847    -12.456300    0.949605    9.052349    -12.244008    0.000000    0.000000    0.000000    
35.283913    159.681946    -98.214027    -1.950574    -0.641543    23.250875    0.090954    -5.926437    -2.328239    -7.575245    2.839786    -0.587459    16.685366    0.109933    3.466056    1.992506    0.409056    1.403451    9.445353    6.293078    -13.222198    -38.267544    11.517534    -52.546749    -8.482859    -22.236275    -116.289497    -3.662083    -33.999676    -11.487334    -11.310722    1.612340    -8.564345    10.089014    8.607718    17.073936    20.268324    31.153280    98.656517    24.420244    12.540372    18.404999    9.238031    4.239629    1.242568    -8.982826    20.051775    -16.931665    5.294352    -22.822313    44.876980    0.000000    0.000000    0.000000    -11.126705    -24.786562    -5.471630    10.071148    24.697548    -12.451690    0.976515    9.035000    -12.276912    0.000000    0.000000    0.000000    
35.292889    159.682098    -98.214516    -1.950242    -0.632216    23.272533    0.090455    -5.948916    -2.331968    -7.562128    2.854820    -0.588071    16.667664    0.076201    3.444590    2.050785    0.483487    1.385559    9.426600    6.299215    -13.218056    -38.233212    11.562484    -52.566940    -8.449414    -22.312243    -116.280388    -3.705194    -34.016273    -11.509688    -11.333516    1.619534    -8.549781    10.052902    8.547919    17.134146    20.336279    31.343882    98.904701    24.428446    12.565267    18.388672    9.231721    4.224576    1.215289    -8.982775    20.054234    -16.943306    5.309055    -22.817272    44.890434    0.000000    0.000000    0.000000    -11.133079    -24.783117    -5.461717    10.064096    24.688213    -12.422718    0.971584    9.019004    -12.320999    0.000000    0.000000    0.000000    
35.299129    159.683090    -98.218658    -1.949052    -0.624118    23.290974    0.092878    -5.955306    -2.329283    -7.559587    2.847842    -0.587764    16.653233    0.051699    3.419966    2.106216    0.544816    1.365015    9.423417    6.299720    -13.224362    -38.248978    11.561539    -52.562107    -8.461839    -22.281693    -116.286209    -3.693685    -34.008224    -11.500950    -11.342845    1.623469    -8.539874    9.986222    8.500332    17.190119    20.398413    31.577425    99.099846    24.323078    12.624503    18.253428    9.225759    4.209107    1.193336    -8.985160    20.059147    -16.948668    5.320373    -22.806335    44.906105    0.000000    0.000000    0.000000    -11.139642    -24.780596    -5.452385    10.062268    24.675905    -12.418327    0.975809    9.016896    -12.351004    0.000000    0.000000    0.000000    
35.303802    159.685257    -98.219475    -1.953524    -0.618367    23.310385    0.093518    -5.975638    -2.327193    -7.545905    2.864188    -0.586339    16.652641    0.031036    3.398422    2.130859    0.586153    1.342321    9.416693    6.300095    -13.231946    -38.263786    11.552457    -52.561695    -8.458924    -22.264528    -116.282959    -3.707128    -33.987003    -11.501474    -11.363914    1.578783    -8.497787    9.924645    8.531213    17.179356    20.430552    31.736391    99.274803    24.337477    12.682316    18.207293    9.229343    4.201195    1.169305    -8.997831    20.046194    -16.938675    5.329122    -22.799435    44.909725    0.000000    0.000000    0.000000    -11.139910    -24.773016    -5.422848    10.067935    24.651588    -12.443895    0.981906    9.015268    -12.376928    0.000000    0.000000    0.000000    
35.310860    159.687073    -98.220154    -1.958947    -0.616317    23.331211    0.108845    -5.980719    -2.323993    -7.548631    2.859648    -0.585865    16.643717    0.018148    3.378254    2.166943    0.615603    1.325113    9.409109    6.307415    -13.227212    -38.270874    11.547429    -52.567715    -8.470640    -22.228369    -116.287094    -3.715808    -33.970325    -11.516338    -11.385075    1.581366    -8.480694    9.872414    8.576449    17.208382    20.437887    31.819233    99.399590    24.469225    12.744448    18.249933    9.230794    4.196136    1.162243    -8.992607    20.042398    -16.935122    5.318003    -22.804741    44.895210    0.000000    0.000000    0.000000    -11.139260    -24.763929    -5.431887    10.057646    24.638372    -12.439548    0.978469    9.008381    -12.377191    0.000000    0.000000    0.000000    
35.319221    159.688705    -98.220085    -1.960468    -0.617198    23.347610    0.114610    -5.988889    -2.311969    -7.534282    2.873005    -0.581383    16.609064    -0.019478    3.355972    2.221700    0.660577    1.308279    9.391850    6.297317    -13.234735    -38.261013    11.569844    -52.568520    -8.465571    -22.250334    -116.304443    -3.746143    -33.983448    -11.556885    -11.425025    1.585192    -8.476739    9.837026    8.648136    17.212599    20.346130    31.798519    99.540596    24.796415    12.808200    18.167206    9.232946    4.206921    1.148971    -8.998736    20.014206    -16.913099    5.317720    -22.796711    44.869701    0.000000    0.000000    0.000000    -11.141593    -24.751251    -5.425798    10.060589    24.625513    -12.449389    0.963110    9.005253    -12.391552    0.000000    0.000000    0.000000    
